<svg width="32" height="32" viewBox="0 0 32 32" fill="none" xmlns="http://www.w3.org/2000/svg">
<mask id="path-1-inside-1_57_20042" fill="white">
<path d="M0 15.9968C0 7.162 7.162 0 15.9968 0C24.8315 0 31.9935 7.162 31.9935 15.9968C31.9935 24.8315 24.8315 31.9935 15.9968 31.9935C7.162 31.9935 0 24.8315 0 15.9968Z"/>
</mask>
<path d="M15.9968 31.9935V30.8445C7.7966 30.8445 1.14904 24.1969 1.14904 15.9968H0H-1.14904C-1.14904 25.4661 6.5274 33.1426 15.9968 33.1426V31.9935ZM31.9935 15.9968H30.8445C30.8445 24.1969 24.1969 30.8445 15.9968 30.8445V31.9935V33.1426C25.4661 33.1426 33.1426 25.4661 33.1426 15.9968H31.9935ZM15.9968 0V1.14904C24.1969 1.14904 30.8445 7.7966 30.8445 15.9968H31.9935H33.1426C33.1426 6.5274 25.4661 -1.14904 15.9968 -1.14904V0ZM15.9968 0V-1.14904C6.5274 -1.14904 -1.14904 6.5274 -1.14904 15.9968H0H1.14904C1.14904 7.7966 7.7966 1.14904 15.9968 1.14904V0Z" fill="#92400E" mask="url(#path-1-inside-1_57_20042)"/>
<path d="M12.6552 12.6641H19.3205V19.3294" stroke="#92400E" stroke-width="1.33306" stroke-linecap="round" stroke-linejoin="round"/>
<path d="M12.6552 19.3294L19.3205 12.6641" stroke="#92400E" stroke-width="1.33306" stroke-linecap="round" stroke-linejoin="round"/>
</svg>
