<svg width="28" height="28" viewBox="0 0 28 28" fill="none" xmlns="http://www.w3.org/2000/svg">
<path d="M23.3333 9.33334H4.66667C4.02233 9.33334 3.5 9.85568 3.5 10.5V12.8333C3.5 13.4777 4.02233 14 4.66667 14H23.3333C23.9777 14 24.5 13.4777 24.5 12.8333V10.5C24.5 9.85568 23.9777 9.33334 23.3333 9.33334Z" stroke="#973C00" stroke-width="2.33333" stroke-linecap="round" stroke-linejoin="round"/>
<path d="M14 9.33334V24.5" stroke="#973C00" stroke-width="2.33333" stroke-linecap="round" stroke-linejoin="round"/>
<path d="M22.1667 14V22.1667C22.1667 22.7855 21.9208 23.379 21.4832 23.8166C21.0457 24.2542 20.4522 24.5 19.8333 24.5H8.16666C7.54782 24.5 6.95433 24.2542 6.51675 23.8166C6.07916 23.379 5.83333 22.7855 5.83333 22.1667V14" stroke="#973C00" stroke-width="2.33333" stroke-linecap="round" stroke-linejoin="round"/>
<path d="M8.75 9.33326C7.97645 9.33326 7.23458 9.02597 6.6876 8.47899C6.14062 7.93201 5.83333 7.19014 5.83333 6.4166C5.83333 5.64305 6.14062 4.90118 6.6876 4.3542C7.23458 3.80722 7.97645 3.49993 8.75 3.49993C9.87546 3.48032 10.9784 4.0264 11.9149 5.06695C12.8514 6.1075 13.578 7.59423 14 9.33326C14.422 7.59423 15.1486 6.1075 16.0851 5.06695C17.0216 4.0264 18.1245 3.48032 19.25 3.49993C20.0235 3.49993 20.7654 3.80722 21.3124 4.3542C21.8594 4.90118 22.1667 5.64305 22.1667 6.4166C22.1667 7.19014 21.8594 7.93201 21.3124 8.47899C20.7654 9.02597 20.0235 9.33326 19.25 9.33326" stroke="#973C00" stroke-width="2.33333" stroke-linecap="round" stroke-linejoin="round"/>
</svg>
