<svg width="65" height="65" viewBox="0 0 65 65" fill="none" xmlns="http://www.w3.org/2000/svg">
<path d="M59.1769 32.7374C62.4792 29.2186 64.3576 24.5535 64.435 19.6782C64.5125 14.803 62.7833 10.0781 59.5945 6.45153C56.4057 2.82498 51.9931 0.565057 47.242 0.125162C42.4909 -0.314733 37.7528 1.09794 33.9783 4.07977C33.8005 4.12198 33.6367 4.21171 33.5039 4.33978L32.452 5.42199C28.8859 1.91036 24.114 -0.0306282 19.1623 0.0164623C14.2107 0.0635527 9.47487 2.09496 5.97338 5.67381C2.47189 9.25266 0.484392 14.0931 0.438319 19.1541C0.392247 24.2152 2.29128 29.0926 5.72701 32.7374L3.4581 35.0494C2.6927 35.8364 2.17227 36.8373 1.96239 37.926C1.7525 39.0147 1.86254 40.1426 2.27865 41.1675C2.69476 42.1925 3.39832 43.0686 4.30071 43.6856C5.20309 44.3026 6.26394 44.6328 7.34962 44.6347C7.65139 44.6337 7.9526 44.6079 8.25031 44.5574C8.11966 45.3619 8.1618 46.1857 8.3738 46.9719C8.58581 47.758 8.9626 48.4876 9.47804 49.11C9.99348 49.7325 10.6352 50.2329 11.3588 50.5765C12.0823 50.9201 12.8703 51.0987 13.6682 51.0999C13.9724 51.0962 14.2759 51.068 14.5757 51.0156C14.5207 51.3192 14.4931 51.6274 14.4932 51.9362C14.4932 53.4272 15.0727 54.8571 16.1043 55.9114C17.1358 56.9657 18.5348 57.558 19.9936 57.558C20.298 57.5579 20.6017 57.5296 20.9012 57.4737C20.8492 57.7801 20.8216 58.0904 20.8187 58.4013C20.8205 59.5118 21.1441 60.5969 21.7486 61.5197C22.3532 62.4424 23.2115 63.1615 24.2154 63.5862C25.2193 64.0109 26.3238 64.1222 27.3895 63.9061C28.4552 63.69 29.4345 63.1561 30.2037 62.3718L32.452 60.0668L34.7071 62.3718C35.5325 63.2142 36.5986 63.7667 37.7512 63.9493C38.9039 64.1319 40.0836 63.9352 41.1198 63.3877C42.1559 62.8402 42.995 61.9702 43.5157 60.9033C44.0364 59.8365 44.2118 58.628 44.0165 57.4526C44.3136 57.5089 44.6151 57.5371 44.9172 57.537C45.7124 57.5342 46.4976 57.3553 47.2186 57.0125C47.9396 56.6697 48.5793 56.1712 49.0936 55.5513C49.608 54.9314 49.9847 54.2049 50.1978 53.4219C50.4109 52.6388 50.4554 51.8179 50.3282 51.0156C50.6253 51.0718 50.9268 51.1001 51.2289 51.0999C52.0273 51.0997 52.8161 50.9218 53.5405 50.5787C54.2649 50.2355 54.9075 49.7353 55.4237 49.1127C55.9399 48.4902 56.3173 47.7602 56.5297 46.9736C56.7421 46.1869 56.7844 45.3624 56.6536 44.5574C56.9511 44.6102 57.2523 44.6384 57.5543 44.6417C58.6414 44.6412 59.704 44.3115 60.6078 43.6941C61.5117 43.0768 62.2163 42.1996 62.6327 41.1732C63.049 40.1468 63.1585 39.0174 62.9473 37.9274C62.7361 36.8375 62.2136 35.836 61.4458 35.0494L59.1769 32.7374ZM57.4512 7.19289C60.5542 10.3734 62.3184 14.6675 62.3672 19.1589C62.416 23.6503 60.7456 27.9833 57.7124 31.2335L48.0868 21.3952L40.2281 13.3559L41.2801 12.2807C41.3765 12.1833 41.4531 12.0673 41.5054 11.9395C41.5576 11.8116 41.5846 11.6744 41.5846 11.5358C41.5846 11.3972 41.5576 11.26 41.5054 11.1322C41.4531 11.0043 41.3765 10.8883 41.2801 10.7909C41.0858 10.5952 40.824 10.4855 40.5513 10.4855C40.2785 10.4855 40.0167 10.5952 39.8225 10.7909L38.7705 11.8661L37.3129 13.3559L26.3122 24.5997C25.6675 25.2584 24.7933 25.6284 23.8817 25.6284C22.9701 25.6284 22.0959 25.2584 21.4512 24.5997C20.8067 23.9408 20.4447 23.0472 20.4447 22.1155C20.4447 21.1838 20.8067 20.2902 21.4512 19.6313L32.452 8.38754L33.6277 7.18586L33.9096 6.89774L34.9615 5.82255L35.044 5.90688C38.2816 3.27129 42.355 1.94572 46.4875 2.18289C50.62 2.42007 54.5226 4.20341 57.4512 7.19289ZM23.8783 60.882C23.2338 60.2231 22.8717 59.3295 22.8717 58.3978C22.8717 57.4661 23.2338 56.5726 23.8783 55.9136L26.1334 53.6087L27.591 52.1189L30.018 49.6312C30.6627 48.9725 31.537 48.6024 32.4485 48.6024C33.3601 48.6024 34.2343 48.9725 34.879 49.6312C35.5235 50.2901 35.8855 51.1836 35.8855 52.1153C35.8855 53.0471 35.5235 53.9406 34.879 54.5995L32.452 57.0872L30.9944 58.577L28.7392 60.882C28.0945 61.5407 27.2203 61.9108 26.3087 61.9108C25.3972 61.9108 24.5229 61.5407 23.8783 60.882ZM17.5597 54.4238C16.9152 53.7649 16.5532 52.8714 16.5532 51.9397C16.5532 51.008 16.9152 50.1144 17.5597 49.4555L19.8148 47.1505L21.2724 45.6818L23.6995 43.1941C24.1806 42.7038 24.7931 42.3703 25.4596 42.2356C26.1261 42.1009 26.8167 42.1711 27.4442 42.4372C28.0718 42.7034 28.608 43.1536 28.9853 43.7311C29.3627 44.3086 29.5641 44.9874 29.5643 45.6818C29.5641 46.6119 29.2031 47.504 28.5604 48.1625L26.1334 50.601L24.6758 52.0908L22.4207 54.3957C21.7796 55.0582 20.9074 55.4333 19.9959 55.4386C19.0843 55.4438 18.208 55.0788 17.5597 54.4238ZM11.2411 47.9657C10.5967 47.3068 10.2346 46.4132 10.2346 45.4815C10.2346 44.5498 10.5967 43.6562 11.2411 42.9973L13.4963 40.6924L14.9539 39.2026L17.3809 36.7149C18.0293 36.0748 18.8977 35.7207 19.799 35.7287C20.7004 35.7367 21.5626 36.1062 22.2 36.7577C22.8374 37.4091 23.1989 38.2904 23.2068 39.2117C23.2146 40.133 22.8681 41.0205 22.2419 41.6832L19.8148 44.1709L18.3573 45.6818L16.1021 47.9868C15.4547 48.6427 14.5789 49.009 13.6673 49.005C12.7558 49.001 11.8831 48.6272 11.2411 47.9657ZM4.95008 41.5075C4.3077 40.8489 3.94699 39.9569 3.94699 39.0269C3.94699 38.0969 4.3077 37.2048 4.95008 36.5462L7.20524 34.2412L8.66283 32.7514L11.0899 30.2637C11.7422 29.6492 12.6016 29.3162 13.4885 29.3344C14.3754 29.3525 15.2212 29.7204 15.8489 30.3611C16.4766 31.0017 16.8377 31.8656 16.8567 32.7721C16.8757 33.6786 16.5511 34.5575 15.9508 35.2251L13.5238 37.7128L12.0662 39.2026L9.76291 41.5075C9.1203 42.1513 8.25633 42.5119 7.3565 42.5119C6.45666 42.5119 5.59269 42.1513 4.95008 41.5075ZM31.5788 46.5813L31.62 46.2721L31.8813 46.5391C31.7704 46.5444 31.66 46.5585 31.5513 46.5813H31.5788ZM41.0257 60.882C40.381 61.5407 39.5068 61.9108 38.5952 61.9108C37.6836 61.9108 36.8094 61.5407 36.1647 60.882L33.9096 58.577L36.3435 56.0893C37.2348 55.1833 37.7891 53.9879 37.9111 52.7092L41.0257 55.8926C41.3479 56.2192 41.6036 56.6078 41.7782 57.036C41.9527 57.4642 42.0426 57.9234 42.0426 58.3873C42.0426 58.8511 41.9527 59.3104 41.7782 59.7386C41.6036 60.1667 41.3479 60.5553 41.0257 60.882ZM59.9538 41.5075C59.3095 42.1641 58.4367 42.5328 57.5268 42.5328C56.6169 42.5328 55.7442 42.1641 55.0998 41.5075L41.7338 27.8182C41.5396 27.6225 41.2778 27.5128 41.0051 27.5128C40.7323 27.5128 40.4705 27.6225 40.2763 27.8182C40.1798 27.9156 40.1032 28.0316 40.0509 28.1595C39.9987 28.2873 39.9718 28.4245 39.9718 28.5631C39.9718 28.7017 39.9987 28.8389 40.0509 28.9668C40.1032 29.0946 40.1798 29.2106 40.2763 29.308L53.6628 42.9973C54.289 43.66 54.6355 44.5476 54.6277 45.4689C54.6198 46.3901 54.2583 47.2714 53.6209 47.9229C52.9835 48.5744 52.1213 48.9439 51.2199 48.9519C50.3186 48.9599 49.4502 48.6057 48.8018 47.9657L35.429 34.2904C35.3333 34.1921 35.2196 34.1141 35.0944 34.0607C34.9692 34.0074 34.8349 33.9797 34.6992 33.9794C34.5636 33.9791 34.4292 34.0061 34.3037 34.0588C34.1782 34.1116 34.0642 34.1891 33.968 34.2869C33.8718 34.3847 33.7955 34.501 33.7433 34.6289C33.6911 34.7569 33.664 34.8942 33.6637 35.0328C33.6634 35.1715 33.6898 35.3089 33.7414 35.4371C33.793 35.5654 33.8689 35.6819 33.9646 35.7802L47.3442 49.4555C47.9887 50.1144 48.3508 51.008 48.3508 51.9397C48.3508 52.8714 47.9887 53.7649 47.3442 54.4238C46.6996 55.0826 45.8253 55.4526 44.9138 55.4526C44.0022 55.4526 43.1279 55.0826 42.4833 54.4238L36.3435 48.1414L30.0249 41.6832C29.4029 41.0493 28.6413 40.5768 27.804 40.3054C26.9667 40.034 26.0779 39.9715 25.2121 40.1231C25.2615 39.8189 25.2867 39.511 25.2877 39.2026C25.2877 37.7115 24.7082 36.2816 23.6767 35.2273C22.6452 34.173 21.2461 33.5807 19.7873 33.5807C19.4831 33.5837 19.1796 33.6119 18.8798 33.665C18.9314 33.3609 18.959 33.053 18.9623 32.7444C18.9618 31.6333 18.6392 30.5473 18.0352 29.6234C17.4312 28.6996 16.5729 27.9794 15.5687 27.5539C14.5645 27.1283 13.4595 27.0164 12.3931 27.2323C11.3268 27.4482 10.3469 27.9822 9.57727 28.7669L7.16398 31.2335C4.10418 27.9894 2.41251 23.6473 2.45289 19.1414C2.49326 14.6355 4.26247 10.3258 7.3799 7.13951C10.4973 3.95321 14.7138 2.14492 19.1224 2.10365C23.5309 2.06237 27.7791 3.79143 30.9531 6.91882L19.9524 18.1626C18.9239 19.2231 18.3498 20.6577 18.3562 22.1509C18.3627 23.6441 18.9492 25.0735 19.9867 26.1246C21.0243 27.1758 22.4279 27.7626 23.8888 27.756C25.3497 27.7495 26.7482 27.15 27.7766 26.0895L38.7774 14.8457L46.6154 22.8569L59.9538 36.5462C60.5962 37.2048 60.9569 38.0969 60.9569 39.0269C60.9569 39.9569 60.5962 40.8489 59.9538 41.5075Z" fill="black"/>
</svg>
