<svg width="64" height="64" viewBox="0 0 64 64" fill="none" xmlns="http://www.w3.org/2000/svg">
<path d="M0 32C0 14.3269 14.3269 0 32 0C49.6731 0 64 14.3269 64 32C64 49.6731 49.6731 64 32 64C14.3269 64 0 49.6731 0 32Z" fill="#EAE4DA"/>
<path d="M44.3997 36.3997C44.6981 36.697 44.9348 37.0503 45.0963 37.4393C45.2578 37.8282 45.3409 38.2452 45.3409 38.6664C45.3409 39.0876 45.2578 39.5046 45.0963 39.8936C44.9348 40.2825 44.6981 40.6358 44.3997 40.9331L40.9331 44.3997C40.6358 44.6981 40.2825 44.9348 39.8936 45.0963C39.5046 45.2578 39.0876 45.3409 38.6664 45.3409C38.2452 45.3409 37.8282 45.2578 37.4393 45.0963C37.0503 44.9348 36.697 44.6981 36.3997 44.3997L19.5997 27.5997C19.0005 26.9976 18.6641 26.1826 18.6641 25.3331C18.6641 24.4835 19.0005 23.6686 19.5997 23.0664L23.0664 19.5997C23.6686 19.0005 24.4835 18.6641 25.3331 18.6641C26.1826 18.6641 26.9976 19.0005 27.5997 19.5997L44.3997 36.3997Z" stroke="#444444" stroke-width="2.66667" stroke-linecap="round" stroke-linejoin="round"/>
<path d="M35.333 32.6667L37.9997 30" stroke="#444444" stroke-width="2.66667" stroke-linecap="round" stroke-linejoin="round"/>
<path d="M31.333 28.6667L33.9997 26" stroke="#444444" stroke-width="2.66667" stroke-linecap="round" stroke-linejoin="round"/>
<path d="M27.333 24.6667L29.9997 22" stroke="#444444" stroke-width="2.66667" stroke-linecap="round" stroke-linejoin="round"/>
<path d="M39.333 36.6667L41.9997 34" stroke="#444444" stroke-width="2.66667" stroke-linecap="round" stroke-linejoin="round"/>
</svg>
