<svg width="24" height="24" viewBox="0 0 24 24" fill="none" xmlns="http://www.w3.org/2000/svg">
<path d="M12.3201 4.63444L12.0095 4.94417L11.6989 4.63356C10.626 3.58022 9.18059 2.99315 7.67708 3.00006C6.17357 3.00697 4.73361 3.6073 3.67045 4.67045C2.6073 5.73361 2.00697 7.17357 2.00006 8.67708C1.99315 10.1806 2.58022 11.626 3.63356 12.6989L3.94417 13.0095L12.0095 21.0748L20.0748 13.0095L20.3854 12.6989C21.4304 11.6243 22.0104 10.1816 21.9999 8.68278C21.9894 7.18394 21.3892 5.74948 20.3293 4.68967C19.2694 3.62987 17.8349 3.02991 16.336 3.01958C14.8372 3.00924 13.3945 3.58935 12.3201 4.63444Z" fill="#EB5050"/>
</svg>
